<svg width="1006" height="4087" viewBox="0 0 1006 4087" fill="none" xmlns="http://www.w3.org/2000/svg">
<path fill-rule="evenodd" clip-rule="evenodd" d="M616.255 3824.22L606.67 3839.25C574.477 3886.74 526.49 3916.77 467.714 3902.46C417.775 3890.3 387.454 3848.14 393.161 3796.83C398.428 3749.5 432.994 3712.73 482.033 3712.02C516.728 3711.53 549.533 3724.42 573.682 3749.47C593.232 3769.74 605.135 3791.5 614.457 3817.95C615.124 3819.85 616.005 3822.22 616.249 3824.22H616.255ZM515.162 -102.908H529.812C531.084 -102.535 531.041 -101.594 531.011 -99.4169L530.98 -85.3292C531.084 -83.3725 531.414 -83.2258 531.439 -80.9573L532.809 -59.4833C533.072 -56.958 533.39 -53.8885 533.659 -51.1064C540.767 19.7298 562.286 94.3814 581.389 163.071C596.62 217.82 613.858 277.033 621.975 333.152C623.932 346.695 625.59 362.085 626.305 375.77C626.544 380.349 626.544 386.011 626.63 390.664C627.229 423.921 621.149 458.034 604.774 487.273C584.668 523.196 546.957 551.842 509.828 568.284C495.778 574.508 481.862 579.461 466.9 583.038C463.731 583.784 461.493 583.381 459.743 586.426L440.353 614.491C438.952 616.545 437.484 618.374 436.047 620.288C421.232 639.579 407.187 657.977 391.534 676.651C383.821 685.853 375.441 695.214 367.116 703.854C358.772 712.512 349.095 721.458 340.385 729.92C331.987 738.083 321.832 747.016 312.798 754.494C297.689 767.01 281.094 779.349 265.484 791.383C245.341 806.907 223.284 821.839 202.535 836.771C184.692 849.617 169.18 860.464 152.628 875.231C140.884 885.711 128.656 896.258 117.138 906.91C99.4173 923.29 74.326 957.452 64.0802 979.495C58.0307 992.519 51.4306 1005.39 46.6533 1018.95C42.188 1031.62 38.6524 1044.32 35.5206 1057.37C29.6301 1082.1 27.2628 1106.54 27.2628 1132.6C28.4006 1131.84 28.7737 1130.94 29.6484 1129.71C37.2272 1119.08 46.8307 1110.18 57.2171 1102.34C82.6571 1083.48 117.413 1076.89 148.554 1078.78C174.233 1080.33 199.189 1090.44 217.968 1108.2C235.878 1125.13 247.953 1151.49 249.751 1175.97C250.21 1182.17 250.632 1185.91 250.265 1192.23C248.822 1216.98 243.286 1236.38 228.63 1256.7C203.685 1291.28 162.078 1304.46 121.047 1296.15C75.9164 1287.01 43.6316 1258.94 26.327 1216.58L18.9194 1195.43C18.9194 1198.15 18.2588 1200.78 17.849 1203.58C15.2065 1221.56 14.8762 1241.41 17.4025 1259.33C19.5311 1274.44 21.9779 1288.62 26.3331 1302.69C31.8077 1320.26 36.4932 1332.04 45.0568 1348.35C51.9138 1361.41 57.1926 1369.84 65.7746 1381.82C74.7113 1394.3 83.8499 1406.51 94.3036 1417.76C97.4599 1421.16 100.488 1424.64 103.748 1428.08C106.703 1431.2 109.015 1434.06 112.293 1437.27C169.315 1493.15 236.661 1524.63 313.917 1541.89C357.402 1551.6 398.911 1557.07 442.94 1562.87C516.991 1572.63 594.92 1583.42 662.615 1616.56C686.538 1628.27 706.326 1640.21 727.215 1656.86C734.188 1662.41 741.4 1669.11 748.269 1674.97C760.778 1685.65 776.395 1704.25 786.696 1717.39C793.033 1725.47 799.205 1733.67 805.389 1741.87C811.493 1749.97 818.522 1760.04 823.739 1768.78C825.305 1771.4 827.006 1773.73 828.694 1776.57C833.551 1784.76 831.508 1783.52 838.664 1786.37C853.394 1792.24 864.759 1796.72 878.522 1804.97C894.487 1814.53 898.341 1818.18 912.948 1829.43C914.312 1830.48 915.095 1831.47 916.465 1832.51C917.896 1833.6 918.532 1834.51 919.872 1835.69C921.193 1836.85 921.848 1837.21 923.169 1838.54C925.463 1840.86 927.457 1842.83 929.763 1845.13C945.875 1861.25 960.384 1881.12 971.37 1901.01C994.179 1942.3 1006.06 1990.69 1004.94 2037.86C1004.59 2052.33 1004 2063.35 1002 2077.77C996.302 2118.87 985.163 2154.45 967.29 2191.81C953.245 2221.17 937.054 2245.36 915.449 2269.74C905.76 2280.67 892.915 2292.92 881.55 2302.26C791.247 2376.21 674.041 2402.98 564.134 2434.29C533.341 2443.06 503.962 2451.74 473.818 2462.68C428.633 2479.09 388.708 2497.16 349.646 2525.58C334.023 2536.94 319.502 2549.91 306.522 2564.21C283.021 2590.1 268.298 2613.36 254.137 2645.29C230.465 2699.13 220.568 2764.96 222.58 2823.53C223.724 2856.8 230.477 2891.44 242.026 2922.65C248.773 2940.88 253.36 2953.61 263.025 2970.81C270.696 2984.47 277.889 2996.28 287.058 3009.04C293.548 3018.08 299.066 3024.85 306.681 3032.97C315.19 3042.04 323.888 3051.7 332.555 3060.51C335.944 3063.96 341.688 3068.69 345.389 3071.84C356.368 3081.22 365.641 3087.89 377.575 3095.9C387.258 3102.4 395.504 3107.98 405.756 3113.72C418.497 3120.86 431.281 3127.08 444.781 3132.65C453.785 3136.34 463.364 3140.02 473.023 3143.09C478.033 3144.68 498.023 3150.93 503.301 3151.05C501.112 3146.48 499.9 3139.59 498.555 3134.71C489.116 3099.96 486.737 3057.92 502.164 3024.55C510.66 3006.18 519.517 2992.84 536.1 2980.67C574.483 2952.49 632.844 2949.96 670.536 2980.6C690.924 2997.18 703.867 3019.91 708.583 3045.71C711.721 3062.89 711.006 3081.69 705.47 3098.3C696.814 3124.29 678.757 3148.06 653.47 3159.61C627.247 3171.59 595.746 3175.47 567.161 3174.51C558.084 3174.2 549.184 3174.24 540.192 3173.04C535.849 3172.46 531.414 3171.8 527.035 3171.7L535.011 3191.41C535.904 3193.63 536.773 3195.49 537.77 3197.88C539.629 3202.33 541.416 3206.3 543.44 3210.66C544.003 3211.88 544.56 3212.79 545.049 3213.89C558.206 3240.38 571.15 3267.7 585.445 3293.54C591.023 3303.63 596.694 3314.95 601.942 3325.3C611.845 3344.82 622.097 3365.64 631.083 3385.6C654.645 3438.03 673.014 3489.02 681.675 3546.08C685.731 3572.82 686.813 3596.23 686.581 3623.24C686.55 3626.47 686.202 3629.65 686.159 3633.09C686.049 3640.97 684.575 3652.49 683.669 3660.56C679.106 3701.09 667.686 3746.52 652.498 3784.38C648.191 3795.05 644.087 3805.02 638.973 3815.24C633.444 3826.3 632.918 3823.51 634.728 3830.33C651.617 3894.52 647.965 3974.85 617.32 4034.52C615.65 4037.77 613.906 4040.9 612.059 4044.05L600.18 4062.49C599.042 4064.15 598.027 4065.26 596.92 4066.71C593.813 4070.77 586.417 4079.36 582.98 4082.65L578.906 4086.04C577.468 4083.32 575.664 4082.48 573.762 4080.2C572.514 4078.71 569.253 4075.9 568.795 4074.18L579.407 4063.26C602.284 4034.57 614.469 4007.57 622.317 3971.8C629.131 3940.73 631.284 3906.9 627.064 3875.33C626.232 3869.24 624.183 3849.86 621.981 3845.26C620.201 3846.57 617.956 3850.69 616.616 3852.64C611.759 3859.77 606.114 3866.84 600.119 3873.06C595.201 3878.17 589.647 3884.1 584.179 3888.32C564.843 3903.22 549.239 3913.17 524.955 3918.78C487.086 3927.53 440.12 3916.72 411.23 3890.18C379.545 3861.06 370.804 3817.43 380.781 3776.59C382.793 3768.75 384.763 3764.42 387.974 3757.2C407.732 3713.72 450.531 3692.48 497.178 3696.57C553.105 3701.48 593.855 3736.54 618.042 3785.57C619.399 3788.32 620.696 3791.07 621.962 3793.86C622.947 3796.05 625.161 3803.19 626.807 3804.39C627.266 3802.42 628.33 3801.13 629.131 3799.25C632.801 3790.66 636.429 3782.46 639.603 3773.69C659.869 3717.66 672.427 3661.25 670.799 3601.37C670.689 3597.35 670.524 3592.25 670.255 3588.19C666.823 3536.36 655.984 3491.75 637.878 3443.16C630.514 3423.4 622.195 3404.23 613.368 3385.08C604.762 3366.45 596.529 3349.36 586.974 3331.15C582.998 3323.58 579.585 3316.05 575.279 3308.52C570.917 3300.9 566.501 3291.87 562.335 3283.98C550.701 3261.93 540.174 3240.44 529.482 3217.94L528.931 3216.79C524.588 3207.82 521.144 3198.65 517.064 3189.55C506.702 3166.45 513.602 3169.4 500.69 3166.81C483.03 3163.26 457.29 3155.53 440.72 3148.1C427.917 3142.01 415.017 3135.97 402.257 3129.79C394.397 3125.99 383.796 3119.19 376.419 3114.43C359.494 3103.52 343.401 3091.2 328.292 3077.9C312.235 3063.75 297.555 3048.15 284.128 3031.49C275.277 3020.51 265.674 3006.31 258.132 2994.23C240.692 2966.28 226.734 2932.54 218.5 2900.69C212.53 2877.61 208.946 2857.24 207.441 2833.38C207.239 2830.2 206.97 2827.71 206.866 2824.31C205.062 2764.24 214.09 2702.86 236.404 2646.87C241.732 2633.51 247.763 2620.83 254.773 2608.27C269.98 2581.19 294.031 2551.71 317.367 2531.2C335.491 2515.26 357.628 2500.09 378.591 2488.14C391.864 2480.58 405.419 2473.59 419.433 2467.46C439.05 2458.9 456.978 2451.71 477.207 2444.63C549.423 2419.38 623.687 2402.83 696.227 2379.28C757.451 2359.39 820.075 2332.19 870.093 2291.04C875.898 2286.24 883.214 2278.59 888.859 2273.16C898.946 2263.45 906.69 2256.53 915.425 2245.32C944.48 2208.03 962.231 2171.28 975.554 2126.01C985.983 2090.57 990.442 2053.59 988.784 2016.68C986.399 1963.39 964.17 1908.17 929.182 1867.93C921.34 1858.92 916.183 1853.12 907.008 1845.15C897.509 1836.88 886.266 1828.12 875.506 1821.56C871.2 1818.98 851.791 1807.52 845.699 1806.1C852.305 1818.57 858.202 1832.4 862.673 1845.81C876.259 1887.01 875.072 1919.29 853.993 1957.76C837.753 1987.4 809.028 2009.46 775.116 2013.8C742.709 2017.95 710.333 2008.48 684.348 1988.89C641.738 1956.77 625.198 1896.83 648.344 1848.08C660.682 1822.09 683.92 1802.48 709.978 1791.14C727.754 1783.41 746.067 1778.79 765.329 1776.73C770.003 1776.25 775.881 1775.78 780.64 1775.78C784.096 1775.78 785.662 1776.25 788.989 1776.22C797.345 1776.12 806.123 1778.74 811.408 1778.85C809.016 1774.33 805.737 1770.13 802.881 1765.85C793.595 1753.12 784.151 1739.63 774.602 1727.2C767.421 1717.86 759.549 1709.1 751.652 1700.38C738.03 1685.33 715.22 1666.33 698.276 1655.14C682.905 1644.99 669.258 1636.87 652.498 1629.06C592.785 1601.23 525.879 1589.86 461.046 1581.13C439.79 1578.27 418.809 1575.97 397.51 1572.82C376.664 1569.73 356.754 1566.76 336.054 1562.6C297.787 1554.92 267.417 1547.51 230.967 1532.73C212.836 1525.38 199.416 1519.32 182.123 1509.42C160.855 1497.23 140.15 1483.68 121.878 1467.26C111.951 1458.34 101.644 1449.66 93.068 1439.39C80.2899 1424.08 67.3895 1408.76 54.7337 1393.37C50.3479 1388.03 43.7417 1377.58 39.9064 1371.49C15.1025 1332.07 1.21114 1284.74 0 1238.24V1227.55C0.348661 1211.91 2.26936 1196.44 5.97617 1181.57C7.54209 1175.29 9.27928 1169.39 11.6159 1163.47C13.5488 1158.58 11.8973 1154.64 11.8545 1149.24C11.7444 1136.34 10.8207 1123.15 11.8912 1110.15C17.0416 1048.75 32.297 995.796 66.4169 944.006C78.2408 926.054 87.6668 914.816 102.623 899.493C112.018 889.869 119.786 882.036 129.947 873.109C141.434 863.014 152.622 854.356 164.904 845.282C188.577 827.788 211.986 810.472 235.958 793.37C266.45 771.602 294.447 749.945 322.328 724.949C331.681 716.566 339.29 709.247 348.062 700.265C357.047 691.069 364.92 683.346 373.3 673.483C379.331 666.378 385.105 660.203 390.929 652.768C393.29 649.753 395.626 646.714 397.987 643.7L414.374 622.733C416.668 619.664 418.669 617.01 420.968 613.947L430.499 601.07C432.309 598.44 438.928 590.045 439.551 587.71C432.896 587.71 426.902 588.59 419.77 588.59C385.998 588.462 352.35 579.492 325.503 558.305C312.988 548.43 299.433 533.083 292.979 518.353C277.149 482.235 285.272 430.818 312.321 401.836C330.5 382.355 352.68 371.123 379.129 367.698C408.979 363.84 442.592 371.765 464.521 393.153C478.063 406.36 485.159 418.675 491.398 436.872C501.827 467.285 499.784 496.683 489.93 526.907C488.713 530.594 487.453 533.676 486.076 537.112L481.929 546.59C480.479 550.099 478.938 552.894 477.348 556.073C476.577 557.608 475.904 559.155 474.962 560.72L473.072 564.102C473.035 564.163 472.827 564.921 472.705 564.615C472.68 564.548 472.442 564.786 472.442 564.933L473.512 564.976C473.616 564.927 473.989 564.756 474.118 564.701L483.446 561.723C486.927 560.561 490.279 559.43 493.802 558.012C518.282 548.076 541.721 535.064 560.494 516.25C573.388 503.324 581.805 495.925 591.066 479.538C603.887 456.848 608.86 432.671 610.2 406.886C610.579 399.579 611.123 394.382 610.873 386.959C609.655 350.682 604.615 320.978 596.963 285.673C592.1 263.245 585.335 240.01 579.371 217.741C568.073 175.569 556.237 133.239 545.349 91.0062C537.44 60.3299 530.411 29.5618 524.784 -1.61587C521.53 -19.8187 518.031 -41.1337 516.93 -59.5138C516.471 -67.8295 515.394 -77.1297 515.144 -85.4087L515.156 -103L515.162 -102.908ZM528.038 3155.81C527.206 3155.69 525.09 3155.31 524.258 3155.19C519.23 3154.44 521.426 3155.42 516.642 3140.83C508.25 3114.74 503.656 3078.58 509.687 3051.65C516.844 3019.68 536.198 2993.57 567.314 2981.7C619.711 2961.72 674.066 2983.42 690.673 3038.62C700.619 3071.69 690.74 3111.01 664.487 3133.84C632.227 3161.89 568.214 3161.62 528.038 3155.81V3155.81ZM818.54 1796.86C820.338 1797.31 822.265 1797.45 823.378 1798.61C824.302 1799.59 827.14 1805.12 827.972 1806.76C842.971 1836.55 857.529 1867.16 855.694 1901.46C854.287 1927.79 839.343 1958.25 819.873 1976C800.03 1994.08 776.309 2001.38 749.542 1998.5C728.206 1996.21 704.736 1986.33 688.544 1971.99C660.939 1947.54 647.286 1908.43 656.302 1872.37C663.288 1844.45 683.504 1822.38 708.638 1809.26C735.65 1795.17 770.052 1789.22 800.257 1793.33C806.484 1794.17 812.441 1795.37 818.54 1796.85V1796.86ZM40.5181 1209.44C35.6796 1197.39 31.6792 1181.82 29.8809 1168.67C29.0245 1162.39 28.3455 1163.83 30.933 1158.69C35.961 1148.66 40.6404 1140.25 48.262 1131.63C49.4487 1130.28 50.354 1129.65 51.4428 1128.22C53.1616 1125.97 58.8381 1121.05 61.4928 1118.94L72.8946 1111C98.3836 1095.9 129.109 1091.49 158.206 1095.9C200.352 1102.3 230.826 1136.25 234.056 1178.47C236.172 1206.13 229.284 1233.13 210.555 1254.2C190.938 1276.27 160.617 1285.91 131.653 1281.89C90.1931 1276.14 58.5934 1252.04 42.2492 1213.64C41.6558 1212.25 41.087 1210.85 40.5181 1209.45V1209.44ZM472.154 529.414C467.365 541.301 460.905 554.245 454.318 565.19C453.198 567.049 452.403 568.376 451.43 570.216L436.059 571.989C430.59 572.362 425.373 572.851 419.341 572.851C377.82 572.644 334.721 556.416 311.752 520.065C295.72 494.69 298.209 456.652 311.819 430.769C325.123 405.474 344.324 391.594 372.395 385.174C404.734 377.775 440.989 386.66 461.896 413.624C479.201 435.954 485.74 471.327 481.085 498.86C479.28 509.524 476.136 519.386 472.148 529.414H472.154Z" fill="#FFC000"/>
</svg>
