<svg width="111" height="111" viewBox="0 0 111 111" fill="none" xmlns="http://www.w3.org/2000/svg">
<g clip-path="url(#clip0)">
<path d="M88.0195 47.1893C85.0774 47.1893 82.2629 47.7458 79.6748 48.7578L73.3322 35.3698V24.3537H84.714C87.4036 24.3537 89.592 22.1655 89.592 19.4757C89.592 18.5778 88.8642 17.8498 87.966 17.8498C87.0678 17.8498 86.34 18.5778 86.34 19.4757C86.34 20.3724 85.6107 21.1017 84.714 21.1017H71.7062C70.808 21.1017 70.0802 21.8297 70.0802 22.7277V34.9479L55.9069 46.1454C55.0495 46.8229 53.9757 47.1958 52.883 47.1958H46.4153L40.6561 35.0394C40.2715 34.2277 39.302 33.8817 38.4906 34.2661C37.6791 34.6504 37.3329 35.6202 37.7172 36.4316L52.9305 68.544H45.9028C45.0664 56.6278 35.1057 47.188 22.9805 47.188C10.3091 47.188 0 57.4969 0 70.1685C0 82.84 10.3091 93.1489 22.9805 93.1489C33.0229 93.1489 41.8219 86.7266 44.8752 77.1676C45.1484 76.3121 44.6764 75.3972 43.8212 75.1238C42.9655 74.8509 42.0508 75.3226 41.7774 76.1779C39.1563 84.3836 31.6023 89.8968 22.9805 89.8968C12.102 89.8968 3.25195 81.0467 3.25195 70.1683C3.25195 59.2898 12.102 50.4398 22.9805 50.4398C33.3117 50.4398 41.8127 58.4224 42.6416 68.5436H39.3759C38.5567 60.2188 31.5168 53.693 22.9803 53.693C13.8952 53.693 6.50369 61.0843 6.50369 70.1696C6.50369 79.2549 13.8952 86.6461 22.9803 86.6461C31.5166 86.6461 38.5565 80.1203 39.3759 71.7955H55.5C56.1298 71.7955 56.703 71.4318 56.9712 70.862L71.711 39.5433L76.7383 50.1551C69.76 54.1043 65.0391 61.5955 65.0391 70.1698C65.0391 82.8413 75.3482 93.1502 88.0195 93.1502C100.691 93.1502 111 82.8413 111 70.1698C111 57.4982 100.691 47.1893 88.0195 47.1893ZM22.9805 83.3944C15.6883 83.3944 9.75586 77.462 9.75586 70.1698C9.75586 62.8776 15.6883 56.9452 22.9805 56.9452C29.7218 56.9452 35.2971 62.0165 36.1014 68.5438H22.9805C22.0823 68.5438 21.3545 69.2718 21.3545 70.1698C21.3545 71.0678 22.0823 71.7958 22.9805 71.7958H36.1014C35.2971 78.3231 29.7218 83.3944 22.9805 83.3944ZM55.4952 66.3615L47.9559 50.4476H52.8828C54.7037 50.4476 56.4936 49.8258 57.9227 48.6969L67.2929 41.2942L55.4952 66.3615ZM88.0195 89.8983C77.1411 89.8983 68.291 81.0482 68.291 70.1698C68.291 62.891 72.2536 56.5211 78.1342 53.102L79.5324 56.0531C74.749 58.9397 71.543 64.1871 71.543 70.1698C71.543 79.2551 78.9344 86.6463 88.0195 86.6463C97.1046 86.6463 104.496 79.2551 104.496 70.1698C104.496 61.0845 97.1046 53.6932 88.0195 53.6932C86.0729 53.6932 84.205 54.0349 82.4697 54.6575L81.0714 51.7058C83.2335 50.8896 85.5749 50.4413 88.0195 50.4413C98.898 50.4413 107.748 59.2913 107.748 70.1698C107.748 81.0482 98.898 89.8983 88.0195 89.8983ZM89.489 69.4736L83.8711 57.6153C85.1769 57.1828 86.5707 56.9452 88.0195 56.9452C95.3117 56.9452 101.244 62.8776 101.244 70.1698C101.244 77.462 95.3117 83.3944 88.0195 83.3944C80.7273 83.3944 74.7949 77.462 74.7949 70.1698C74.7949 65.4833 77.2475 61.3615 80.9342 59.0119L86.5501 70.8657C86.828 71.4526 87.4121 71.796 88.0206 71.796C88.2539 71.796 88.4908 71.7455 88.7157 71.639C89.5271 71.2546 89.8734 70.2851 89.489 69.4736Z" fill="#FFC000"/>
<path d="M30.3091 30.8574H49.4633C50.3615 30.8574 51.0893 30.1294 51.0893 29.2314V25.9794C51.0893 23.2896 48.9009 21.1015 46.2113 21.1015H30.3091C27.6195 21.1015 25.4312 23.2896 25.4312 25.9794C25.4312 28.6692 27.6193 30.8574 30.3091 30.8574ZM30.3091 24.3535H46.2113C47.108 24.3535 47.8373 25.0828 47.8373 25.9794V27.6054H30.3091C29.4124 27.6054 28.6831 26.8761 28.6831 25.9794C28.6831 25.0828 29.4124 24.3535 30.3091 24.3535Z" fill="#FFC000"/>
</g>
<defs>
<clipPath id="clip0">
<rect width="111" height="111" fill="white"/>
</clipPath>
</defs>
</svg>
