<svg width="20" height="20" viewBox="0 0 20 20" fill="none" xmlns="http://www.w3.org/2000/svg">
<path d="M17.8516 2.34375H16.4453V1.75781C16.4453 0.788555 15.6568 0 14.6875 0C13.7182 0 12.9297 0.788555 12.9297 1.75781V2.34375H7.07031V1.75781C7.07031 0.788555 6.28176 0 5.3125 0C4.34324 0 3.55469 0.788555 3.55469 1.75781V2.34375H2.14844C0.963789 2.34375 0 3.30754 0 4.49219V17.8516C0 19.0362 0.963789 20 2.14844 20H17.8516C19.0362 20 20 19.0362 20 17.8516V4.49219C20 3.30754 19.0362 2.34375 17.8516 2.34375ZM14.1016 1.75781C14.1016 1.43473 14.3644 1.17188 14.6875 1.17188C15.0106 1.17188 15.2734 1.43473 15.2734 1.75781V4.10156C15.2734 4.42465 15.0106 4.6875 14.6875 4.6875C14.3644 4.6875 14.1016 4.42465 14.1016 4.10156V1.75781ZM4.72656 1.75781C4.72656 1.43473 4.98941 1.17188 5.3125 1.17188C5.63559 1.17188 5.89844 1.43473 5.89844 1.75781V4.10156C5.89844 4.42465 5.63559 4.6875 5.3125 4.6875C4.98941 4.6875 4.72656 4.42465 4.72656 4.10156V1.75781ZM1.17188 4.49219C1.17188 3.95371 1.60996 3.51563 2.14844 3.51563H3.55469V4.10156C3.55469 5.07082 4.34324 5.85938 5.3125 5.85938C6.28176 5.85938 7.07031 5.07082 7.07031 4.10156V3.51563H12.9297V4.10156C12.9297 5.07082 13.7182 5.85938 14.6875 5.85938C15.6568 5.85938 16.4453 5.07082 16.4453 4.10156V3.51563H17.8516C18.39 3.51563 18.8281 3.95371 18.8281 4.49219V7.10938H1.17188V4.49219ZM18.8281 17.8516C18.8281 18.39 18.39 18.8281 17.8516 18.8281H2.14844C1.60996 18.8281 1.17188 18.39 1.17188 17.8516V8.28125H18.8281V17.8516Z" fill="#0057FF"/>
<path d="M11.983 10.625H12.8999V17.0703C12.8999 17.3939 13.1622 17.6563 13.4858 17.6563C13.8094 17.6563 14.0718 17.3939 14.0718 17.0703V10.0391C14.0718 9.71547 13.8094 9.45313 13.4858 9.45313H11.983C11.6594 9.45313 11.397 9.71547 11.397 10.0391C11.397 10.3627 11.6593 10.625 11.983 10.625Z" fill="#0057FF"/>
<path d="M8.27203 16.4844C7.69055 16.4844 7.19164 16.0512 7.11149 15.4767C7.10398 15.4229 7.10016 15.3677 7.10016 15.3125C7.10016 14.9889 6.83781 14.7266 6.51422 14.7266C6.19063 14.7266 5.92828 14.9889 5.92828 15.3125C5.92828 15.4216 5.93586 15.5314 5.95082 15.6387C6.11133 16.7889 7.10922 17.6563 8.27203 17.6563C9.56437 17.6563 10.6158 16.6048 10.6158 15.3125C10.6158 14.613 10.3073 13.9845 9.81981 13.5547C10.3073 13.1249 10.6158 12.4964 10.6158 11.7969C10.6158 10.5045 9.56437 9.45313 8.27203 9.45313C7.15457 9.45313 6.18738 10.248 5.97227 11.3432C5.90988 11.6608 6.11676 11.9688 6.4343 12.0311C6.75148 12.0935 7.05977 11.8866 7.12215 11.5691C7.22961 11.0221 7.7132 10.625 8.27203 10.625C8.9182 10.625 9.44391 11.1507 9.44391 11.7969C9.44391 12.443 8.9182 12.9688 8.27203 12.9688C7.94844 12.9688 7.68609 13.2311 7.68609 13.5547C7.68609 13.8783 7.94844 14.1406 8.27203 14.1406C8.9182 14.1406 9.44391 14.6663 9.44391 15.3125C9.44391 15.9587 8.9182 16.4844 8.27203 16.4844Z" fill="#0057FF"/>
</svg>
