<svg width="102" height="55" viewBox="0 0 102 55" fill="none" xmlns="http://www.w3.org/2000/svg">
<path d="M1.52327 44.0256H6.75936C7.69258 50.5235 13.7166 55.0346 20.2138 54.1014C25.4361 53.3508 29.539 49.2478 30.2889 44.0256H71.3641C72.2869 50.5249 78.3033 55.045 84.8026 54.1221C90.3957 53.328 94.6571 48.7062 94.9953 43.0668L101.336 36.7273C101.653 36.4077 101.831 35.9753 101.83 35.525V20.2242C101.83 19.8381 101.699 19.4632 101.458 19.1616L95.3371 11.5112L98.2598 5.68292C98.6791 4.8424 98.338 3.82203 97.4975 3.40281C97.3156 3.31149 97.1191 3.25407 96.9171 3.23332L87.6424 2.25514L71.0307 0.502862C60.1296 -0.70568 49.0964 0.684108 38.8359 4.55877C32.9267 6.99177 27.4236 10.3102 22.5147 14.4014L19.264 17.1111L16.9445 18.3757L6.22393 22.5409C6.15544 22.5672 6.08903 22.5977 6.02469 22.6329C2.20191 24.7187 -0.177124 28.7255 -0.177124 33.0802V42.3259C-0.177124 43.2646 0.583835 44.0256 1.52327 44.0256ZM18.5245 50.8265C13.8294 50.8265 10.0239 47.0203 10.0239 42.3259C10.0239 37.6307 13.8294 33.8253 18.5245 33.8253C23.2189 33.8253 27.0251 37.6307 27.0251 42.3259C27.0196 47.0182 23.2168 50.8209 18.5245 50.8265ZM83.1292 50.8265C78.4341 50.8265 74.6279 47.0203 74.6279 42.3259C74.6279 37.6307 78.4341 33.8253 83.1292 33.8253C87.8236 33.8253 91.6298 37.6307 91.6298 42.3259C91.6236 47.0182 87.8216 50.8209 83.1292 50.8265ZM98.43 27.0244H92.9573L92.1071 23.6243H98.43V27.0244ZM88.3549 5.74933L94.1112 6.35602L91.8076 10.9633C91.5115 11.5568 91.5869 12.268 92.002 12.7861L97.952 20.2242H89.9294C88.99 20.2242 88.2297 20.9858 88.2297 21.9246C88.2297 22.0629 88.2463 22.2013 88.2802 22.3355L89.9799 29.1357C90.1688 29.8932 90.8488 30.4245 91.6291 30.4245H98.4293V34.8207L94.4855 38.7639C94.4855 38.7466 94.4703 38.73 94.4654 38.7127C94.2973 38.1987 94.0946 37.6972 93.858 37.2115C93.8068 37.1064 93.7598 36.9991 93.7052 36.8933C93.4603 36.4194 93.1842 35.9622 92.8792 35.525C92.8176 35.4364 92.7498 35.3548 92.6869 35.2683C92.3915 34.8664 92.0705 34.4845 91.726 34.1241C91.6803 34.075 91.6374 34.0203 91.5883 33.9726C91.2085 33.5921 90.8038 33.2372 90.3763 32.91C90.2774 32.8353 90.1805 32.762 90.0823 32.6907C89.6451 32.3718 89.1871 32.0827 88.7119 31.8253C88.6489 31.7914 88.5811 31.7644 88.5161 31.7319C88.0637 31.5023 87.5967 31.3016 87.1187 31.1322C87.0232 31.0976 86.9319 31.0588 86.8365 31.0263C86.3107 30.8561 85.7739 30.7219 85.2295 30.6251C85.1139 30.605 84.997 30.5898 84.8898 30.5725C84.3073 30.4791 83.7186 30.4293 83.1285 30.4245C82.7356 30.4245 82.3461 30.4466 81.9636 30.484C81.8363 30.4957 81.7118 30.5199 81.5865 30.5372C81.3313 30.569 81.076 30.6029 80.8297 30.6528C80.6817 30.6818 80.5392 30.7205 80.3925 30.7544C80.1718 30.8077 79.9505 30.8603 79.7333 30.9246C79.5818 30.9689 79.4358 31.0215 79.2878 31.0727C79.0816 31.1439 78.8761 31.2152 78.6755 31.2968C78.5296 31.3563 78.385 31.4213 78.2404 31.487C78.0467 31.5742 77.8565 31.6572 77.6676 31.7631C77.5265 31.8378 77.3867 31.9125 77.2491 31.992C77.0658 32.0958 76.8873 32.2065 76.7102 32.3206C76.576 32.4057 76.4452 32.4908 76.3159 32.5821C76.1457 32.7046 75.9762 32.8319 75.806 32.9633C75.6836 33.0581 75.5611 33.1515 75.4435 33.2518C75.2733 33.3929 75.1191 33.543 74.9607 33.6924C74.8521 33.7927 74.7434 33.891 74.6397 33.9968C74.4695 34.1663 74.3235 34.3365 74.1686 34.5067C74.0821 34.607 73.9984 34.7024 73.9085 34.8041C73.7279 35.0255 73.5598 35.2545 73.3986 35.4841C73.3523 35.5526 73.2997 35.6135 73.254 35.6813C73.05 35.9843 72.8597 36.2963 72.684 36.6187C72.6335 36.71 72.5927 36.8068 72.545 36.9009C72.4239 37.1354 72.3049 37.3713 72.2046 37.6148C72.1507 37.7442 72.1043 37.8763 72.0517 38.0092C71.9687 38.2236 71.8815 38.4374 71.8138 38.6587C71.766 38.8047 71.7273 38.9562 71.6865 39.1056C71.627 39.3187 71.5689 39.529 71.5163 39.7448C71.4803 39.9046 71.4533 40.0644 71.4243 40.2277C71.4008 40.3571 71.3682 40.483 71.3496 40.6137H53.0042L53.8544 37.2136H66.128V33.8253H54.7046L58.2611 19.5967L79.8135 18.5238C80.3794 18.4954 80.8941 18.1869 81.186 17.7012L88.3549 5.74933ZM62.2755 3.53909C62.6732 3.53909 63.0689 3.51349 63.4653 3.51349C65.8734 3.51142 68.2794 3.63525 70.6737 3.88567L84.6269 5.35847L78.7378 15.1714L59.123 16.144L62.2755 3.53909ZM24.6903 17.0143C29.3336 13.1445 34.5399 10.0045 40.1295 7.7043C46.0788 5.38753 52.3588 4.03094 58.7342 3.68505L55.5749 16.326L23.6125 17.9205L24.6903 17.0143ZM3.22298 33.0802C3.21952 30.0052 4.8791 27.1683 7.56183 25.6643L18.0146 21.6029L54.7046 19.7738L51.1987 33.8253H32.1249V37.2254H50.3485L49.4983 40.6255H30.3041C30.2854 40.4947 30.2536 40.3688 30.2294 40.2401C30.2011 40.07 30.1734 39.9171 30.1381 39.7573C30.0904 39.5414 30.0323 39.3305 29.9679 39.1181C29.9271 38.968 29.8884 38.8172 29.8406 38.6705C29.7694 38.4498 29.6857 38.2354 29.6027 38.0209C29.5494 37.8888 29.5037 37.756 29.4491 37.6266C29.3439 37.3838 29.2249 37.1472 29.1094 36.9127C29.0617 36.8193 29.0209 36.7224 28.9697 36.6304C28.7954 36.3101 28.6058 35.9975 28.4003 35.6938C28.3547 35.626 28.3014 35.5644 28.2558 35.4966C28.0856 35.2635 27.9161 35.0338 27.7459 34.8166C27.6622 34.7142 27.5757 34.6194 27.4858 34.5191C27.3309 34.3489 27.178 34.167 27.0147 34.0086C26.9109 33.9034 26.8023 33.8045 26.6937 33.7049C26.5353 33.5548 26.3776 33.4053 26.2109 33.2642C26.0933 33.1639 25.9708 33.0705 25.8484 32.9751C25.6782 32.8443 25.508 32.717 25.3385 32.5946C25.2092 32.504 25.0784 32.4244 24.9442 32.3324C24.774 32.2189 24.5886 32.1083 24.4046 32.0045C24.267 31.9249 24.1279 31.8495 23.9868 31.7748C23.7979 31.678 23.6077 31.586 23.414 31.4995C23.2694 31.4331 23.1248 31.3687 22.9789 31.3093C22.7782 31.2276 22.5721 31.1564 22.3666 31.0844C22.2186 31.0339 22.0726 30.9807 21.9211 30.9371C21.7032 30.872 21.4825 30.8195 21.2612 30.7669C21.1152 30.733 20.9727 30.6936 20.8247 30.6645C20.5763 30.6154 20.3231 30.5815 20.0678 30.549C19.9419 30.5324 19.8181 30.5082 19.6908 30.4964C19.3062 30.4473 18.9167 30.4252 18.5245 30.4252C18.1315 30.4252 17.7421 30.4473 17.3595 30.4846C17.2322 30.4964 17.1077 30.5206 16.9825 30.5372C16.7272 30.5697 16.472 30.6036 16.2257 30.6528C16.0777 30.6818 15.9351 30.7212 15.7885 30.7551C15.5678 30.8077 15.3464 30.8603 15.1292 30.9253C14.9777 30.9696 14.8311 31.0222 14.6837 31.0727C14.4776 31.1446 14.2721 31.2159 14.0715 31.2975C13.9248 31.357 13.7809 31.4213 13.6364 31.4877C13.4427 31.5742 13.2524 31.6579 13.0636 31.7631C12.9224 31.8378 12.7827 31.9125 12.645 31.9927C12.4617 32.0965 12.2832 32.2072 12.1061 32.3206C11.9719 32.4057 11.8412 32.4908 11.7118 32.5828C11.5416 32.7053 11.3715 32.8326 11.202 32.9633C11.0795 33.0588 10.9571 33.1522 10.8395 33.2525C10.6693 33.3936 10.515 33.543 10.3566 33.6924C10.3075 33.7367 10.2563 33.7796 10.2107 33.8253H3.22298V33.0802ZM3.22298 37.2254H7.78458C7.72025 37.3596 7.65384 37.4903 7.59434 37.6266C7.53485 37.7622 7.49403 37.8881 7.44146 38.0209C7.35775 38.2354 7.27128 38.4491 7.20349 38.6705C7.15575 38.8165 7.11632 38.968 7.07551 39.1174C7.01601 39.3298 6.9586 39.5408 6.90533 39.7566C6.87005 39.9164 6.84307 40.0762 6.81401 40.2395C6.7898 40.3688 6.75798 40.4947 6.7393 40.6255H3.22298V37.2254Z" fill="#FFC000"/>
<path d="M40.6255 21.9237H49.1261V25.3245H40.6255V21.9237Z" fill="#FFC000"/>
<path d="M67.8278 21.9237H78.0287V25.3245H67.8278V21.9237Z" fill="#FFC000"/>
</svg>
