<svg width="97" height="97" viewBox="0 0 97 97" fill="none" xmlns="http://www.w3.org/2000/svg">
<g clip-path="url(#clip0)">
<path d="M50.8988 46.1035C50.158 45.3628 48.9588 45.3628 48.218 46.1035C47.4792 46.8424 47.4792 48.0416 48.218 48.7824C48.9588 49.5213 50.158 49.5213 50.8988 48.7824C51.6376 48.0416 51.6376 46.8424 50.8988 46.1035Z" fill="#FFC000"/>
<path d="M75.0106 21.9898C71.3086 18.2881 65.3159 18.2879 61.6138 21.9898C57.9215 25.682 57.9214 31.6915 61.6144 35.3868C65.3079 39.0781 71.3174 39.0796 75.0106 35.3864C78.7121 31.6849 78.7128 25.6919 75.0106 21.9898ZM72.3313 32.707C70.116 34.9224 66.51 34.9224 64.2936 32.7073C62.0779 30.4904 62.0778 26.8843 64.2932 24.669C66.5142 22.4481 70.11 22.4477 72.3313 24.669C74.5523 26.8898 74.5526 30.4858 72.3313 32.707Z" fill="#FFC000"/>
<path d="M96.4448 0.554895C96.0727 0.182999 95.5649 -0.0185783 95.0371 0.00131422C94.6088 0.0166599 84.4096 0.426636 72.2856 4.71187C62.5704 8.1421 54.4726 13.0533 48.2171 19.309C46.8153 20.7108 45.4513 22.1972 44.1461 23.7414C37.9609 20.1005 33.0044 21.2422 29.8711 22.919C22.6565 26.7801 18.1909 37.2636 18.1909 44.7622C18.1915 45.5283 18.6532 46.2193 19.361 46.5123C19.5953 46.6095 19.8416 46.6567 20.0856 46.6567C20.5788 46.6567 21.0632 46.464 21.4256 46.1018C25.2304 42.297 29.9233 42.535 31.4564 42.7365L32.1199 43.4C30.8142 46.507 29.7623 49.5966 28.9909 52.6015C28.7124 53.689 28.8063 54.8397 29.2203 55.8923C27.3962 56.7329 25.6364 57.9672 24.1041 59.4995C19.2274 64.3764 18.2371 76.2615 18.1974 76.7651C18.1538 77.3177 18.3542 77.8618 18.7462 78.2538C19.1029 78.6104 19.5855 78.8087 20.0856 78.8087C20.1353 78.8087 20.1851 78.8068 20.2349 78.8029C20.7385 78.7633 32.624 77.773 37.5007 72.8963C39.0324 71.3646 40.2665 69.6049 41.1071 67.7812C42.2215 68.2195 43.3684 68.2734 44.3998 68.0092C47.4034 67.2379 50.4926 66.1864 53.6 64.8805L54.2635 65.544C54.4649 67.0772 54.7028 71.7702 50.8982 75.5746C50.3566 76.1164 50.1944 76.9313 50.4877 77.639C50.7808 78.347 51.4715 78.8085 52.2379 78.8085C59.7364 78.8085 70.2198 74.3429 74.0808 67.1284C75.7577 63.9954 76.8993 59.039 73.2584 52.8535C74.8019 51.5489 76.2885 50.1849 77.6908 48.7826C83.9466 42.5268 88.8576 34.429 92.2878 24.7147C96.5732 12.5901 96.983 2.39069 96.9983 1.96253C97.0173 1.4368 96.8167 0.92698 96.4448 0.554895ZM22.4267 40.6872C23.6036 34.9917 27.0219 28.7419 31.6597 26.2597C34.7589 24.6012 38.1465 24.7637 41.7484 26.7354C38.6799 30.7711 36.0122 35.119 33.7886 39.7104C33.7603 39.693 33.4193 39.2643 32.7858 39.1214C32.5253 39.0625 27.5126 37.9843 22.4267 40.6872ZM34.8215 70.2169C32.2165 72.8218 26.1057 74.1957 22.2433 74.7567C22.8045 70.8941 24.1786 64.7835 26.7834 62.1788C28.2421 60.72 29.9336 59.6139 31.6337 58.991L38.0092 65.3665C37.3863 67.0666 36.2804 68.7581 34.8215 70.2169ZM43.4586 64.3387C42.9103 64.4791 42.2753 64.273 41.8032 63.8016C39.3522 61.3507 38.3934 60.3918 38.0926 60.0912C37.5409 59.5395 36.188 58.1866 33.1997 55.1982C32.7273 54.7247 32.5211 54.0899 32.6611 53.5426C33.2679 51.1793 34.0616 48.7547 35.0266 46.3068L50.6934 61.9736C48.2451 62.9388 45.8209 63.7323 43.4586 64.3387ZM70.7406 65.3405C68.2584 69.9781 62.0087 73.3966 56.3134 74.5733C58.1293 71.1562 58.5296 66.8061 57.8661 64.1684C57.7121 63.5557 57.3123 63.2477 57.29 63.2115C61.881 60.9879 66.2287 58.3202 70.2649 55.2516C72.2365 58.8539 72.3988 62.2418 70.7406 65.3405ZM75.012 46.1033C73.3048 47.8103 71.4666 49.4595 69.5482 51.0048C64.9365 54.7181 59.8607 57.8634 54.4454 60.3672L36.633 42.5552C39.1368 37.1395 42.2821 32.0637 45.995 27.4526C47.5417 25.5329 49.1907 23.6945 50.8971 21.9883C56.5096 16.3755 63.7532 11.9086 72.4324 8.69322L88.307 24.5678C85.092 33.2469 80.6251 40.4904 75.012 46.1033ZM89.6701 20.5721L76.4281 7.3301C83.6427 5.08926 89.9191 4.25017 93.0519 3.94856C92.7501 7.08192 91.9108 13.3583 89.6701 20.5721Z" fill="#FFC000"/>
<path d="M45.539 78.2533C44.7988 77.5135 43.5992 77.5138 42.8596 78.2537L37.5019 83.6133C36.7622 84.3533 36.7624 85.5529 37.5022 86.2925C38.2424 87.0321 39.4421 87.0321 40.1817 86.2921L45.5394 80.9325C46.279 80.1925 46.2788 78.9929 45.539 78.2533Z" fill="#FFC000"/>
<path d="M18.7471 51.4612C18.0075 50.7212 16.808 50.7212 16.0678 51.4609L10.7082 56.8186C9.96822 57.5582 9.96803 58.7578 10.7077 59.4978C11.4471 60.2374 12.6465 60.2382 13.3869 59.4982L18.7465 54.1405C19.4865 53.4009 19.4867 52.2012 18.7471 51.4612Z" fill="#FFC000"/>
<path d="M32.1431 80.9342C31.4037 80.1944 30.2039 80.1944 29.4639 80.934L16.6303 93.7657C15.8903 94.5055 15.8903 95.7051 16.6302 96.4449C17.3696 97.1847 18.5694 97.1851 19.3094 96.4451L32.1429 83.6135C32.8829 82.8736 32.8829 81.674 32.1431 80.9342Z" fill="#FFC000"/>
<path d="M16.987 80.9342C16.2474 80.1944 15.0476 80.1944 14.3077 80.934L1.47422 93.7657C0.734213 94.5055 0.734213 95.7051 1.47403 96.4449C2.21346 97.1847 3.41326 97.1851 4.15327 96.4451L16.9868 83.6135C17.7268 82.8736 17.7268 81.674 16.987 80.9342Z" fill="#FFC000"/>
<path d="M16.066 64.8569C15.3263 64.1173 14.1265 64.1173 13.3867 64.8571L0.55508 77.6906C-0.184733 78.4306 -0.184733 79.63 0.55527 80.37C1.29508 81.1098 2.4947 81.1098 3.23451 80.3698L16.0661 67.5363C16.806 66.7963 16.806 65.5969 16.066 64.8569Z" fill="#FFC000"/>
<path d="M58.9355 38.0647C58.1955 37.3248 56.9962 37.3248 56.2561 38.0647L53.5772 40.7435C52.8374 41.4833 52.8374 42.6829 53.5772 43.4229C54.3172 44.1628 55.5166 44.1628 56.2566 43.4229L58.9355 40.7441C59.6753 40.0043 59.6753 38.8047 58.9355 38.0647Z" fill="#FFC000"/>
</g>
<defs>
<clipPath id="clip0">
<rect width="97" height="97" fill="white"/>
</clipPath>
</defs>
</svg>
