<svg width="120" height="120" viewBox="0 0 120 120" fill="none" xmlns="http://www.w3.org/2000/svg">
<path d="M16.766 42.0973C16.4648 42.0973 16.1696 42.0134 15.9134 41.8551C15.6573 41.6968 15.4502 41.4702 15.3155 41.2009C15.1809 40.9315 15.1239 40.63 15.1509 40.33C15.1779 40.0301 15.288 39.7436 15.4687 39.5027C16.4868 38.1695 17.5897 36.9031 18.7703 35.7113C19.0762 35.4287 19.4792 35.2746 19.8956 35.281C20.312 35.2874 20.7101 35.4538 21.0071 35.7457C21.3042 36.0376 21.4776 36.4326 21.4914 36.8489C21.5052 37.2651 21.3583 37.6707 21.0811 37.9816C19.9993 39.0726 18.9891 40.2323 18.0568 41.4535C17.9059 41.6531 17.7108 41.8151 17.4869 41.9268C17.263 42.0385 17.0162 42.0968 16.766 42.0973Z" fill="#FFC000"/>
<path d="M50.3189 110.903C39.0357 110.901 28.1797 106.587 19.9716 98.8456C11.7634 91.1038 6.82342 80.5183 6.16212 69.2546C6.14998 69.0416 6.1799 68.8284 6.25018 68.627C6.32046 68.4256 6.42972 68.24 6.57172 68.0809C6.71372 67.9217 6.88568 67.792 7.07777 67.6993C7.26987 67.6066 7.47835 67.5527 7.69131 67.5405C7.90426 67.5284 8.11752 67.5583 8.31891 67.6286C8.5203 67.6989 8.70587 67.8081 8.86504 67.9501C9.0242 68.0921 9.15384 68.2641 9.24655 68.4562C9.33926 68.6483 9.39322 68.8568 9.40536 69.0697C9.80288 75.8078 11.8577 82.3435 15.3874 88.0968C18.9171 93.8501 23.8125 98.643 29.6392 102.05C35.4659 105.457 42.0436 107.374 48.7886 107.628C55.5335 107.883 62.2371 106.469 68.3043 103.511C74.1177 100.672 79.1763 96.4963 83.0658 91.3262C86.9554 86.1561 89.5655 80.1385 90.6824 73.7658C91.7994 67.3931 91.3915 60.8465 89.4921 54.6618C87.5927 48.4771 84.2558 42.83 79.7545 38.1827C73.4094 31.629 65.0575 27.382 56.0238 26.1156C46.9902 24.8491 37.7923 26.6357 29.8897 31.1919C29.6435 31.3352 29.3637 31.4108 29.0789 31.4108C28.7069 31.4144 28.3449 31.29 28.0538 31.0584C27.7626 30.8269 27.5599 30.5022 27.4797 30.1389C27.3995 29.7757 27.4466 29.3958 27.6132 29.0632C27.7797 28.7305 28.0556 28.4653 28.3945 28.3119C34.2757 24.9485 40.8511 22.9817 47.6131 22.5633C54.3751 22.1449 61.1428 23.2862 67.3936 25.8989C73.6445 28.5117 79.2113 32.526 83.6642 37.6321C88.1171 42.7381 91.337 48.7992 93.0752 55.3473C94.8135 61.8955 95.0236 68.7555 93.6894 75.3978C92.3551 82.04 89.5123 88.2868 85.3802 93.6558C81.2481 99.0248 75.9375 103.372 69.8582 106.363C63.779 109.353 57.0938 110.906 50.3189 110.903Z" fill="#FFC000"/>
<path d="M9.27729 56.9351C9.13823 56.9356 8.99972 56.9176 8.8654 56.8816C8.65935 56.8277 8.46594 56.7337 8.29623 56.605C8.12652 56.4762 7.98383 56.3154 7.87631 56.1315C7.76879 55.9476 7.69855 55.7444 7.6696 55.5333C7.64064 55.3223 7.65354 55.1077 7.70756 54.9016C8.16687 53.1791 8.74279 51.4898 9.43134 49.8454C9.59563 49.4478 9.91115 49.1317 10.3085 48.9668C10.7058 48.8018 11.1524 48.8014 11.55 48.9657C11.9476 49.13 12.2637 49.4455 12.4286 49.8428C12.5936 50.2401 12.594 50.6867 12.4297 51.0843C11.7967 52.593 11.2673 54.1431 10.8454 55.7238C10.7547 56.0706 10.5516 56.3777 10.2679 56.5968C9.98416 56.816 9.63581 56.935 9.27729 56.9351Z" fill="#FFC000"/>
<path d="M50.3206 96.1751C44.4886 96.1758 38.7874 94.4469 33.938 91.2073C29.0886 87.9677 25.3088 83.3627 23.0766 77.9748C20.8445 72.5869 20.2602 66.6581 21.3977 60.9381C22.5351 55.2182 25.3433 49.964 29.467 45.84C33.5908 41.7161 38.8448 38.9076 44.5647 37.7698C50.2846 36.632 56.2135 37.216 61.6015 39.4479C66.9895 41.6797 71.5946 45.4593 74.8346 50.3085C78.0745 55.1577 79.8036 60.8588 79.8033 66.6908C79.7955 74.5079 76.6869 82.0026 71.1595 87.5303C65.6322 93.0579 58.1376 96.167 50.3206 96.1751ZM50.3206 40.4481C45.1301 40.4475 40.056 41.986 35.74 44.8692C31.424 47.7524 28.0599 51.8507 26.0732 56.6459C24.0864 61.4411 23.5663 66.7177 24.5785 71.8085C25.5907 76.8993 28.0898 81.5756 31.7598 85.246C35.4298 88.9165 40.1058 91.4162 45.1964 92.429C50.2871 93.4419 55.5638 92.9224 60.3592 90.9362C65.1546 88.9501 69.2534 85.5865 72.1371 81.2708C75.0208 76.9551 76.56 71.8813 76.56 66.6908C76.5527 59.7336 73.786 53.0634 68.8668 48.1436C63.9476 43.2238 57.2778 40.4563 50.3206 40.4481Z" fill="#FFC000"/>
<path d="M50.3205 81.4427C47.4019 81.4427 44.5489 80.5772 42.1221 78.9557C39.6954 77.3342 37.804 75.0295 36.6871 72.3331C35.5702 69.6367 35.2779 66.6696 35.8473 63.807C36.4167 60.9445 37.8222 58.3151 39.8859 56.2513C41.9497 54.1876 44.5791 52.7821 47.4416 52.2127C50.3042 51.6433 53.2713 51.9356 55.9677 53.0525C58.6642 54.1694 60.9688 56.0608 62.5903 58.4875C64.2118 60.9143 65.0773 63.7673 65.0773 66.6859C65.0739 70.5986 63.518 74.3501 60.7514 77.1167C57.9847 79.8834 54.2332 81.4393 50.3205 81.4427ZM50.3205 55.1805C48.0434 55.1805 45.8174 55.8558 43.924 57.1209C42.0306 58.386 40.5549 60.1842 39.6834 62.288C38.812 64.3918 38.584 66.7068 39.0283 68.9402C39.4725 71.1736 40.5691 73.2251 42.1793 74.8353C43.7895 76.4455 45.841 77.5421 48.0744 77.9863C50.3078 78.4306 52.6228 78.2026 54.7266 77.3311C56.8304 76.4597 58.6286 74.984 59.8937 73.0906C61.1588 71.1972 61.8341 68.9712 61.8341 66.694C61.8315 63.6413 60.6176 60.7142 58.459 58.5556C56.3003 56.397 53.3733 55.1831 50.3205 55.1805Z" fill="#FFC000"/>
<path d="M52.2972 66.6908C51.9752 66.6908 51.6604 66.5948 51.3931 66.4152C51.1258 66.2356 50.918 65.9805 50.7962 65.6823C50.6744 65.3842 50.6442 65.0565 50.7094 64.7411C50.7745 64.4257 50.9321 64.1368 51.1621 63.9114L95.014 20.9805C95.1653 20.8279 95.3454 20.7069 95.5439 20.6245C95.7423 20.5421 95.9552 20.5 96.1701 20.5006C96.385 20.5011 96.5977 20.5445 96.7957 20.6279C96.9937 20.7114 97.1732 20.8335 97.3236 20.9869C97.4741 21.1404 97.5925 21.3222 97.6721 21.5218C97.7516 21.7215 97.7907 21.9349 97.787 22.1498C97.7834 22.3647 97.737 22.5767 97.6507 22.7735C97.5644 22.9703 97.4398 23.148 97.2842 23.2962L53.4324 66.227C53.1293 66.5242 52.7217 66.6908 52.2972 66.6908Z" fill="#FFC000"/>
<path d="M102.589 30.3243H102.498L90.0487 29.6254C89.6559 29.6033 89.2845 29.4391 89.0037 29.1634C88.723 28.8877 88.5521 28.5194 88.5228 28.127L87.5287 14.9059C87.5109 14.6717 87.5442 14.4365 87.6262 14.2164C87.7082 13.9963 87.8371 13.7967 88.0039 13.6313L97.9849 3.7135C98.1934 3.50661 98.4542 3.36023 98.7394 3.28999C99.0246 3.21976 99.3235 3.2283 99.6043 3.31472C99.885 3.40114 100.137 3.56217 100.333 3.78064C100.53 3.99911 100.663 4.2668 100.719 4.55512L102.827 15.4297L112.597 17.4567C112.884 17.5167 113.149 17.6531 113.364 17.8515C113.579 18.0498 113.737 18.3027 113.82 18.5834C113.903 18.864 113.909 19.1619 113.836 19.4455C113.764 19.729 113.616 19.9877 113.408 20.194L103.734 29.8378C103.584 29.9903 103.406 30.1117 103.21 30.1952C103.013 30.2787 102.802 30.3226 102.589 30.3243ZM91.6509 26.4632L101.958 27.0422L108.997 20.0286L101.118 18.394C100.805 18.329 100.519 18.173 100.294 17.9457C100.07 17.7184 99.9173 17.4298 99.8563 17.1162L98.1082 8.15512L90.8109 15.3957L91.6509 26.4632Z" fill="#FFC000"/>
<path d="M76.2389 116.757C75.9795 116.757 75.7239 116.695 75.4934 116.577C75.2628 116.458 75.0642 116.286 74.914 116.074L67.701 105.906C67.5718 105.733 67.4786 105.536 67.4267 105.326C67.3749 105.116 67.3655 104.898 67.3991 104.685C67.4327 104.471 67.5086 104.267 67.6224 104.083C67.7362 103.899 67.8856 103.74 68.0618 103.615C68.238 103.49 68.4374 103.401 68.6483 103.354C68.8592 103.307 69.0775 103.303 69.2901 103.341C69.5027 103.38 69.7055 103.461 69.8866 103.579C70.0676 103.697 70.2232 103.85 70.3443 104.029L76.6832 112.961L83.5167 108.777L77.3335 99.3503C77.2163 99.1721 77.1355 98.9727 77.0954 98.7633C77.0554 98.5539 77.057 98.3387 77.1001 98.1299C77.1433 97.9211 77.2271 97.7229 77.3468 97.5465C77.4666 97.3701 77.6199 97.219 77.7981 97.1019C77.9762 96.9848 78.1757 96.9039 78.3851 96.8639C78.5945 96.8238 78.8097 96.8254 79.0185 96.8685C79.2273 96.9117 79.4255 96.9955 79.6019 97.1153C79.7783 97.235 79.9293 97.3884 80.0464 97.5665L87.1459 108.391C87.2647 108.572 87.3458 108.776 87.3846 108.989C87.4233 109.203 87.4187 109.422 87.3713 109.634C87.3238 109.845 87.2343 110.045 87.1081 110.222C86.982 110.398 86.8217 110.548 86.6367 110.661L77.0837 116.51C76.8302 116.669 76.5378 116.754 76.2389 116.757Z" fill="#FFC000"/>
<path d="M24.4021 116.757C24.1034 116.757 23.8104 116.674 23.5556 116.518L14.0026 110.669C13.8177 110.556 13.6574 110.406 13.5312 110.23C13.405 110.053 13.3155 109.853 13.2681 109.642C13.2206 109.43 13.2161 109.211 13.2548 108.997C13.2935 108.784 13.3746 108.58 13.4934 108.399L20.5945 97.5713C20.8311 97.2116 21.2008 96.9605 21.6225 96.8734C22.0441 96.7862 22.4831 96.8702 22.8429 97.1067C23.2027 97.3433 23.4537 97.713 23.5408 98.1347C23.628 98.5564 23.544 98.9953 23.3075 99.3551L17.1242 108.777L23.9578 112.961L30.2951 104.029C30.4184 103.855 30.5747 103.707 30.755 103.594C30.9354 103.481 31.1363 103.404 31.3463 103.369C31.5563 103.333 31.7712 103.339 31.9789 103.386C32.1865 103.434 32.3827 103.522 32.5564 103.645C32.7301 103.768 32.8778 103.925 32.991 104.105C33.1043 104.285 33.1809 104.486 33.2165 104.696C33.2521 104.906 33.246 105.121 33.1986 105.329C33.1511 105.537 33.0632 105.733 32.9399 105.906L25.7253 116.074C25.5753 116.285 25.3769 116.457 25.1467 116.576C24.9165 116.695 24.6611 116.757 24.4021 116.757Z" fill="#FFC000"/>
</svg>
