<svg width="20" height="20" viewBox="0 0 20 20" fill="none" xmlns="http://www.w3.org/2000/svg">
<path d="M10 0C4.48566 0 0 4.48566 0 10C0 15.5143 4.48566 20 10 20C15.5143 20 20 15.5136 20 10C20 4.48645 15.5143 0 10 0ZM10 18.4508C5.34082 18.4508 1.54918 14.66 1.54918 10C1.54918 5.34004 5.34082 1.54918 10 1.54918C14.66 1.54918 18.4508 5.34004 18.4508 10C18.4508 14.66 14.6592 18.4508 10 18.4508Z" fill="#0057FF"/>
<path d="M14.4229 11.069L10.5499 7.19599C10.2478 6.89544 9.75987 6.89544 9.45776 7.19599L5.58479 11.069C5.33616 11.3586 5.33616 11.787 5.58479 12.0767C5.86288 12.4013 6.35241 12.4392 6.67698 12.1611L9.99999 8.83814L13.3307 12.1611C13.6328 12.4617 14.1208 12.4617 14.4229 12.1611C14.7235 11.859 14.7235 11.371 14.4229 11.069Z" fill="#0057FF"/>
</svg>
